<svg xmlns="http://www.w3.org/2000/svg" viewBox="0 0 1200 800"><path fill="#e9d5af" d="M0 0h1200v800H0z"/><circle cx="840" cy="220" r="114" fill="#c77c47"/><path fill="#d8ad79" d="M0 410Q240 220 510 410T1200 330V800H0z"/><path fill="#b87c54" d="M0 570Q200 590 410 430T860 520T1200 470V800H0z"/><path fill="#805b47" d="M0 780Q350 380 760 650T1200 680V800H0z"/><path d="M20 655Q240 570 390 465m470 139q190 140 330 85" fill="none" stroke="#e5bc82" stroke-width="3"/><path fill="#475f45" d="M130 465h13v143h-13zm-33 30h12v42h24v12h-36zm45-17h27v-38h12v51h-39z"/></svg>
